<svg width="64" height="28" viewBox="0 0 64 28" fill="none" xmlns="http://www.w3.org/2000/svg">
<path d="M30.6016 21V12.5977H32.9219C35.8829 12.5977 37.3633 13.9629 37.3633 16.6934C37.3633 17.9902 36.9512 19.0332 36.127 19.8223C35.3067 20.6074 34.2071 21 32.8282 21H30.6016ZM31.586 13.4883V20.1094H32.8399C33.9415 20.1094 34.7989 19.8145 35.4122 19.2246C36.0255 18.6348 36.3321 17.7988 36.3321 16.7168C36.3321 14.5645 35.1876 13.4883 32.8985 13.4883H31.586Z" fill="#194264"/>
<path d="M43.709 18.2402H39.4727C39.4883 18.9082 39.668 19.4238 40.0118 19.7871C40.3555 20.1504 40.8282 20.332 41.4297 20.332C42.1055 20.332 42.7266 20.1094 43.293 19.6641V20.5664C42.7657 20.9492 42.0684 21.1406 41.2012 21.1406C40.3536 21.1406 39.6876 20.8691 39.2032 20.3262C38.7188 19.7793 38.4766 19.0117 38.4766 18.0234C38.4766 17.0898 38.7403 16.3301 39.2676 15.7441C39.7989 15.1543 40.4571 14.8594 41.2422 14.8594C42.0274 14.8594 42.6348 15.1133 43.0645 15.6211C43.4942 16.1289 43.709 16.834 43.709 17.7363V18.2402ZM42.7247 17.4258C42.7208 16.8711 42.586 16.4395 42.3204 16.1309C42.0587 15.8223 41.6934 15.668 41.2247 15.668C40.7715 15.668 40.3868 15.8301 40.0704 16.1543C39.754 16.4785 39.5587 16.9023 39.4844 17.4258H42.7247Z" fill="#194264"/>
<path d="M46.129 21H45.168V12.1172H46.129V21Z" fill="#194264"/>
<path d="M52.8965 18.2402H48.6602C48.6758 18.9082 48.8555 19.4238 49.1993 19.7871C49.543 20.1504 50.0157 20.332 50.6172 20.332C51.293 20.332 51.9141 20.1094 52.4805 19.6641V20.5664C51.9532 20.9492 51.2559 21.1406 50.3887 21.1406C49.5411 21.1406 48.8751 20.8691 48.3907 20.3262C47.9063 19.7793 47.6641 19.0117 47.6641 18.0234C47.6641 17.0898 47.9278 16.3301 48.4551 15.7441C48.9864 15.1543 49.6446 14.8594 50.4297 14.8594C51.2149 14.8594 51.8223 15.1133 52.252 15.6211C52.6817 16.1289 52.8965 16.834 52.8965 17.7363V18.2402ZM51.9122 17.4258C51.9083 16.8711 51.7735 16.4395 51.5079 16.1309C51.2462 15.8223 50.8809 15.668 50.4122 15.668C49.959 15.668 49.5743 15.8301 49.2579 16.1543C48.9415 16.4785 48.7462 16.9023 48.6719 17.4258H51.9122Z" fill="#194264"/>
<path d="M57.1387 20.9414C56.9122 21.0664 56.6133 21.1289 56.2422 21.1289C55.1915 21.1289 54.6661 20.543 54.6661 19.3711V15.8203H53.6348V15H54.6661V13.5352L55.627 13.2246V15H57.1387V15.8203H55.627V19.2012C55.627 19.6035 55.6954 19.8906 55.8321 20.0625C55.9688 20.2344 56.1954 20.3203 56.5118 20.3203C56.754 20.3203 56.963 20.2539 57.1387 20.1211V20.9414Z" fill="#194264"/>
<path d="M63.2442 18.2402H59.0079C59.0235 18.9082 59.2032 19.4238 59.5469 19.7871C59.8907 20.1504 60.3633 20.332 60.9649 20.332C61.6407 20.332 62.2618 20.1094 62.8282 19.6641V20.5664C62.3008 20.9492 61.6036 21.1406 60.7364 21.1406C59.8887 21.1406 59.2227 20.8691 58.7383 20.3262C58.254 19.7793 58.0118 19.0117 58.0118 18.0234C58.0118 17.0898 58.2755 16.3301 58.8028 15.7441C59.334 15.1543 59.9922 14.8594 60.7774 14.8594C61.5626 14.8594 62.17 15.1133 62.5997 15.6211C63.0294 16.1289 63.2442 16.834 63.2442 17.7363V18.2402ZM62.2598 17.4258C62.2559 16.8711 62.1212 16.4395 61.8555 16.1309C61.5938 15.8223 61.2286 15.668 60.7598 15.668C60.3067 15.668 59.9219 15.8301 59.6055 16.1543C59.2891 16.4785 59.0938 16.9023 59.0196 17.4258H62.2598Z" fill="#194264"/>
<path d="M24.0313 4.66665H20.1886C19.5955 1.95251 17.0588 0.0035 14.1146 0H11.6354C8.69129 0.0035 6.15453 1.95251 5.5615 4.66665H1.71881C1.03421 4.66665 0.479248 5.18897 0.479248 5.8333C0.479248 6.47762 1.03421 7 1.71881 7H2.95838V22.1666C2.9625 25.3867 5.735 27.9962 9.15631 28H16.5938C20.0151 27.9962 22.7876 25.3867 22.7917 22.1666V7H24.0313C24.7159 7 25.2709 6.47768 25.2709 5.83335C25.2709 5.18902 24.7159 4.66665 24.0313 4.66665ZM11.6355 19.8334C11.6355 20.4777 11.0805 21 10.3959 21C9.71128 21 9.15631 20.4777 9.15631 19.8334V12.8334C9.15631 12.189 9.71128 11.6667 10.3959 11.6667C11.0805 11.6667 11.6354 12.189 11.6354 12.8334L11.6355 19.8334ZM16.5938 19.8334C16.5938 20.4777 16.0388 21 15.3542 21C14.6697 21 14.1147 20.4777 14.1147 19.8334V12.8334C14.1147 12.189 14.6697 11.6667 15.3542 11.6667C16.0388 11.6667 16.5938 12.189 16.5938 12.8334V19.8334ZM8.12872 4.66665C8.65597 3.26933 10.06 2.3351 11.6355 2.3333H14.1147C15.6902 2.3351 17.0942 3.26933 17.6215 4.66665H8.12872Z" fill="#194264"/>
</svg>
