<svg width="67" height="28" viewBox="0 0 67 28" fill="none" xmlns="http://www.w3.org/2000/svg">
<path d="M38.8047 20H34.3516V11.5977H38.6172V12.4883H35.3359V15.2832H38.3711V16.168H35.3359V19.1094H38.8047V20Z" fill="#194264"/>
<path d="M44.6758 14L42.6602 17.0352L44.6406 20H43.5215L42.3438 18.0547C42.2695 17.9336 42.1816 17.7812 42.0801 17.5977H42.0566C42.0371 17.6328 41.9453 17.7852 41.7812 18.0547L40.5801 20H39.4727L41.5176 17.0586L39.5605 14H40.6797L41.8398 16.0508C41.9258 16.2031 42.0098 16.3594 42.0918 16.5195H42.1152L43.6152 14H44.6758Z" fill="#194264"/>
<path d="M46.7852 19.1328H46.7617V22.7598H45.8008V14H46.7617V15.0547H46.7852C47.2578 14.2578 47.9492 13.8594 48.8594 13.8594C49.6328 13.8594 50.2363 14.1289 50.6699 14.668C51.1035 15.2031 51.3203 15.9219 51.3203 16.8242C51.3203 17.8281 51.0762 18.6328 50.5879 19.2383C50.0996 19.8398 49.4316 20.1406 48.584 20.1406C47.8066 20.1406 47.207 19.8047 46.7852 19.1328ZM46.7617 16.7129V17.5508C46.7617 18.0469 46.9219 18.4688 47.2422 18.8164C47.5664 19.1602 47.9766 19.332 48.4727 19.332C49.0547 19.332 49.5098 19.1094 49.8379 18.6641C50.1699 18.2188 50.3359 17.5996 50.3359 16.8066C50.3359 16.1387 50.1816 15.6152 49.873 15.2363C49.5645 14.8574 49.1465 14.668 48.6191 14.668C48.0605 14.668 47.6113 14.8633 47.2715 15.2539C46.9316 15.6406 46.7617 16.127 46.7617 16.7129Z" fill="#194264"/>
<path d="M55.3633 20.1406C54.4766 20.1406 53.7676 19.8613 53.2363 19.3027C52.709 18.7402 52.4453 17.9961 52.4453 17.0703C52.4453 16.0625 52.7207 15.2754 53.2715 14.709C53.8223 14.1426 54.5664 13.8594 55.5039 13.8594C56.3984 13.8594 57.0957 14.1348 57.5957 14.6855C58.0996 15.2363 58.3516 16 58.3516 16.9766C58.3516 17.9336 58.0801 18.7012 57.5371 19.2793C56.998 19.8535 56.2734 20.1406 55.3633 20.1406ZM55.4336 14.668C54.8164 14.668 54.3281 14.8789 53.9688 15.3008C53.6094 15.7188 53.4297 16.2969 53.4297 17.0352C53.4297 17.7461 53.6113 18.3066 53.9746 18.7168C54.3379 19.127 54.8242 19.332 55.4336 19.332C56.0547 19.332 56.5312 19.1309 56.8633 18.7285C57.1992 18.3262 57.3672 17.7539 57.3672 17.0117C57.3672 16.2617 57.1992 15.6836 56.8633 15.2773C56.5312 14.8711 56.0547 14.668 55.4336 14.668Z" fill="#194264"/>
<path d="M63.0156 14.9727C62.8477 14.8438 62.6055 14.7793 62.2891 14.7793C61.8789 14.7793 61.5352 14.9727 61.2578 15.3594C60.9844 15.7461 60.8477 16.2734 60.8477 16.9414V20H59.8867V14H60.8477V15.2363H60.8711C61.0078 14.8145 61.2168 14.4863 61.498 14.252C61.7793 14.0137 62.0938 13.8945 62.4414 13.8945C62.6914 13.8945 62.8828 13.9219 63.0156 13.9766V14.9727Z" fill="#194264"/>
<path d="M66.8418 19.9414C66.6152 20.0664 66.3164 20.1289 65.9453 20.1289C64.8945 20.1289 64.3691 19.543 64.3691 18.3711V14.8203H63.3379V14H64.3691V12.5352L65.3301 12.2246V14H66.8418V14.8203H65.3301V18.2012C65.3301 18.6035 65.3984 18.8906 65.5352 19.0625C65.6719 19.2344 65.8984 19.3203 66.2148 19.3203C66.457 19.3203 66.666 19.2539 66.8418 19.1211V19.9414Z" fill="#194264"/>
<path d="M26.985 21.105L25.1067 22.9833C24.8733 23.2167 24.5817 23.3217 24.2783 23.3217C23.975 23.3217 23.6833 23.205 23.45 22.9833C22.995 22.5283 22.995 21.7933 23.45 21.3383L24.955 19.8333H16.3217C15.68 19.8333 15.155 19.3083 15.155 18.6667C15.155 18.025 15.68 17.5 16.3217 17.5H24.955L23.45 15.995C22.995 15.54 22.995 14.805 23.45 14.35C23.905 13.895 24.64 13.895 25.095 14.35L26.9733 16.2283C28.315 17.57 28.315 19.7633 26.9733 21.1167L26.985 21.105ZM15.1667 9.33333H22.7967C22.3883 8.27167 21.77 7.29167 20.9417 6.46333L16.8817 2.39167C16.0533 1.56333 15.0733 0.945 14.0117 0.536667V8.16667C14.0117 8.80833 14.5367 9.33333 15.1783 9.33333H15.1667ZM20.7783 22.1667H16.3333C14.4083 22.1667 12.8333 20.5917 12.8333 18.6667C12.8333 16.7417 14.4083 15.1667 16.3333 15.1667H20.7783C20.7783 14.2683 21.1167 13.37 21.805 12.6933C22.2367 12.2617 22.7617 11.9583 23.31 11.8067V11.6667H15.1667C13.2417 11.6667 11.6667 10.0917 11.6667 8.16667V0.0233333C11.48 0.0116667 11.2933 0 11.095 0H5.83333C2.61333 0 0 2.61333 0 5.83333V22.1667C0 25.3867 2.61333 28 5.83333 28H17.5C19.6117 28 21.4667 26.8683 22.4933 25.1767C22.2483 25.025 22.015 24.85 21.805 24.64C21.1283 23.9633 20.7783 23.065 20.7783 22.1667Z" fill="#194264"/>
</svg>
