<svg width="104" height="33" viewBox="0 0 104 33" fill="none" xmlns="http://www.w3.org/2000/svg">
<path d="M11.7539 27H2.32031V10.1953H11.3789V12.5625H5.10938V17.3203H10.8867V19.6758H5.10938V24.6445H11.7539V27ZM24.4688 15L20.4727 21.0703L24.4219 27H21.2695L19.1602 23.2852C19.0273 23.0586 18.8711 22.7695 18.6914 22.418H18.6445C18.6133 22.4883 18.4492 22.7773 18.1523 23.2852L16.0078 27H12.8672L16.9453 21.1172L13.0781 15H16.2422L18.3164 18.9023C18.4727 19.1914 18.625 19.4883 18.7734 19.793H18.8086L21.4922 15H24.4688ZM29.2266 25.2305H29.1797V32.5195H26.4609V15H29.1797V17.1094H29.2266C30.1562 15.5156 31.5156 14.7188 33.3047 14.7188C34.8281 14.7188 36.0156 15.2539 36.8672 16.3242C37.7188 17.3945 38.1445 18.832 38.1445 20.6367C38.1445 22.6367 37.6641 24.2383 36.7031 25.4414C35.7422 26.6445 34.4297 27.2461 32.7656 27.2461C31.2344 27.2461 30.0547 26.5742 29.2266 25.2305ZM29.1562 20.4961V21.9844C29.1562 22.8594 29.4336 23.6016 29.9883 24.2109C30.5508 24.8203 31.2617 25.125 32.1211 25.125C33.1289 25.125 33.918 24.7344 34.4883 23.9531C35.0664 23.1641 35.3555 22.0664 35.3555 20.6602C35.3555 19.4805 35.0859 18.5586 34.5469 17.8945C34.0156 17.2227 33.293 16.8867 32.3789 16.8867C31.4102 16.8867 30.6289 17.2305 30.0352 17.918C29.4492 18.6055 29.1562 19.4648 29.1562 20.4961ZM46.2422 27.2812C44.3906 27.2812 42.9102 26.7227 41.8008 25.6055C40.6992 24.4805 40.1484 22.9922 40.1484 21.1406C40.1484 19.125 40.7227 17.5508 41.8711 16.418C43.0273 15.2852 44.582 14.7188 46.5352 14.7188C48.4102 14.7188 49.8711 15.2695 50.918 16.3711C51.9648 17.4727 52.4883 19 52.4883 20.9531C52.4883 22.8672 51.9219 24.4023 50.7891 25.5586C49.6641 26.707 48.1484 27.2812 46.2422 27.2812ZM46.3711 16.8867C45.3086 16.8867 44.4688 17.2578 43.8516 18C43.2344 18.7422 42.9258 19.7656 42.9258 21.0703C42.9258 22.3281 43.2383 23.3203 43.8633 24.0469C44.4883 24.7656 45.3242 25.125 46.3711 25.125C47.4414 25.125 48.2617 24.7695 48.832 24.0586C49.4102 23.3477 49.6992 22.3359 49.6992 21.0234C49.6992 19.7031 49.4102 18.6836 48.832 17.9648C48.2617 17.2461 47.4414 16.8867 46.3711 16.8867ZM62.2266 17.5898C61.8984 17.332 61.4258 17.2031 60.8086 17.2031C60.0039 17.2031 59.332 17.5664 58.793 18.293C58.2539 19.0195 57.9844 20.0078 57.9844 21.2578V27H55.2656V15H57.9844V17.4727H58.0312C58.2969 16.6289 58.7031 15.9727 59.25 15.5039C59.8047 15.0273 60.4219 14.7891 61.1016 14.7891C61.5938 14.7891 61.9688 14.8633 62.2266 15.0117V17.5898ZM71.1797 26.8711C70.6484 27.1367 69.9492 27.2695 69.082 27.2695C66.7539 27.2695 65.5898 26.1523 65.5898 23.918V17.1328H63.5859V15H65.5898V12.2227L68.3086 11.4492V15H71.1797V17.1328H68.3086V23.1328C68.3086 23.8438 68.4375 24.3516 68.6953 24.6562C68.9531 24.9609 69.3828 25.1133 69.9844 25.1133C70.4453 25.1133 70.8438 24.9805 71.1797 24.7148V26.8711Z" fill="#FAEBCC"/>
<path d="M83 12C83 11.4477 82.5523 11 82 11C81.4477 11 81 11.4477 81 12H83ZM82 27H81V28H82V27ZM103 27V28H104V27H103ZM92.7071 0.292893C92.3166 -0.0976311 91.6834 -0.0976311 91.2929 0.292893L84.9289 6.65685C84.5384 7.04738 84.5384 7.68054 84.9289 8.07107C85.3195 8.46159 85.9526 8.46159 86.3431 8.07107L92 2.41421L97.6569 8.07107C98.0474 8.46159 98.6805 8.46159 99.0711 8.07107C99.4616 7.68054 99.4616 7.04738 99.0711 6.65685L92.7071 0.292893ZM81 12V27H83V12H81ZM82 28H103V26H82V28ZM104 27V12H102V27H104ZM93 18L93 1L91 1L91 18L93 18Z" fill="#FAEBCC"/>
</svg>
