<svg width="94" height="27" viewBox="0 0 94 27" fill="none" xmlns="http://www.w3.org/2000/svg">
<path d="M13.4922 21H10.2344L7.55078 16.5C7.30859 16.0859 7.07031 15.7344 6.83594 15.4453C6.60938 15.1484 6.375 14.9062 6.13281 14.7188C5.89844 14.5312 5.64062 14.3945 5.35938 14.3086C5.07812 14.2227 4.76172 14.1797 4.41016 14.1797H3.28516V21H0.507812V4.19531H6.03906C6.82812 4.19531 7.55469 4.28906 8.21875 4.47656C8.88281 4.66406 9.46094 4.94922 9.95312 5.33203C10.4453 5.70703 10.8281 6.17969 11.1016 6.75C11.3828 7.3125 11.5234 7.97266 11.5234 8.73047C11.5234 9.32422 11.4336 9.87109 11.2539 10.3711C11.082 10.8633 10.832 11.3047 10.5039 11.6953C10.1836 12.0781 9.79297 12.4062 9.33203 12.6797C8.87891 12.9531 8.36719 13.1641 7.79688 13.3125V13.3594C8.10156 13.5312 8.36719 13.7227 8.59375 13.9336C8.82031 14.1367 9.03516 14.3477 9.23828 14.5664C9.44141 14.7852 9.64062 15.0352 9.83594 15.3164C10.0391 15.5898 10.2617 15.9102 10.5039 16.2773L13.4922 21ZM3.28516 6.45703V11.918H5.60547C6.03516 11.918 6.42969 11.8516 6.78906 11.7188C7.15625 11.5859 7.47266 11.3945 7.73828 11.1445C8.00391 10.8945 8.21094 10.5898 8.35938 10.2305C8.50781 9.87109 8.58203 9.46875 8.58203 9.02344C8.58203 8.21875 8.32812 7.58984 7.82031 7.13672C7.3125 6.68359 6.58203 6.45703 5.62891 6.45703H3.28516Z" fill="#FAEBCC"/>
<path d="M24.6836 15.7383H16.5039C16.5352 16.8477 16.875 17.7031 17.5234 18.3047C18.1797 18.9062 19.0781 19.207 20.2188 19.207C21.5 19.207 22.6758 18.8242 23.7461 18.0586V20.25C22.6523 20.9375 21.207 21.2812 19.4102 21.2812C17.6445 21.2812 16.2578 20.7383 15.25 19.6523C14.25 18.5586 13.75 17.0234 13.75 15.0469C13.75 13.1797 14.3008 11.6602 15.4023 10.4883C16.5117 9.30859 17.8867 8.71875 19.5273 8.71875C21.168 8.71875 22.4375 9.24609 23.3359 10.3008C24.2344 11.3555 24.6836 12.8203 24.6836 14.6953V15.7383ZM22.0586 13.8164C22.0508 12.8398 21.8203 12.082 21.3672 11.543C20.9141 10.9961 20.2891 10.7227 19.4922 10.7227C18.7109 10.7227 18.0469 11.0078 17.5 11.5781C16.9609 12.1484 16.6289 12.8945 16.5039 13.8164H22.0586Z" fill="#FAEBCC"/>
<path d="M30.0391 19.2305H29.9922V26.5195H27.2734V9H29.9922V11.1094H30.0391C30.9688 9.51562 32.3281 8.71875 34.1172 8.71875C35.6406 8.71875 36.8281 9.25391 37.6797 10.3242C38.5312 11.3945 38.957 12.832 38.957 14.6367C38.957 16.6367 38.4766 18.2383 37.5156 19.4414C36.5547 20.6445 35.2422 21.2461 33.5781 21.2461C32.0469 21.2461 30.8672 20.5742 30.0391 19.2305ZM29.9688 14.4961V15.9844C29.9688 16.8594 30.2461 17.6016 30.8008 18.2109C31.3633 18.8203 32.0742 19.125 32.9336 19.125C33.9414 19.125 34.7305 18.7344 35.3008 17.9531C35.8789 17.1641 36.168 16.0664 36.168 14.6602C36.168 13.4805 35.8984 12.5586 35.3594 11.8945C34.8281 11.2227 34.1055 10.8867 33.1914 10.8867C32.2227 10.8867 31.4414 11.2305 30.8477 11.918C30.2617 12.6055 29.9688 13.4648 29.9688 14.4961Z" fill="#FAEBCC"/>
<path d="M47.0547 21.2812C45.2031 21.2812 43.7227 20.7227 42.6133 19.6055C41.5117 18.4805 40.9609 16.9922 40.9609 15.1406C40.9609 13.125 41.5352 11.5508 42.6836 10.418C43.8398 9.28516 45.3945 8.71875 47.3477 8.71875C49.2227 8.71875 50.6836 9.26953 51.7305 10.3711C52.7773 11.4727 53.3008 13 53.3008 14.9531C53.3008 16.8672 52.7344 18.4023 51.6016 19.5586C50.4766 20.707 48.9609 21.2812 47.0547 21.2812ZM47.1836 10.8867C46.1211 10.8867 45.2812 11.2578 44.6641 12C44.0469 12.7422 43.7383 13.7656 43.7383 15.0703C43.7383 16.3281 44.0508 17.3203 44.6758 18.0469C45.3008 18.7656 46.1367 19.125 47.1836 19.125C48.2539 19.125 49.0742 18.7695 49.6445 18.0586C50.2227 17.3477 50.5117 16.3359 50.5117 15.0234C50.5117 13.7031 50.2227 12.6836 49.6445 11.9648C49.0742 11.2461 48.2539 10.8867 47.1836 10.8867Z" fill="#FAEBCC"/>
<path d="M63.0391 11.5898C62.7109 11.332 62.2383 11.2031 61.6211 11.2031C60.8164 11.2031 60.1445 11.5664 59.6055 12.293C59.0664 13.0195 58.7969 14.0078 58.7969 15.2578V21H56.0781V9H58.7969V11.4727H58.8438C59.1094 10.6289 59.5156 9.97266 60.0625 9.50391C60.6172 9.02734 61.2344 8.78906 61.9141 8.78906C62.4062 8.78906 62.7812 8.86328 63.0391 9.01172V11.5898Z" fill="#FAEBCC"/>
<path d="M71.9922 20.8711C71.4609 21.1367 70.7617 21.2695 69.8945 21.2695C67.5664 21.2695 66.4023 20.1523 66.4023 17.918V11.1328H64.3984V9H66.4023V6.22266L69.1211 5.44922V9H71.9922V11.1328H69.1211V17.1328C69.1211 17.8438 69.25 18.3516 69.5078 18.6562C69.7656 18.9609 70.1953 19.1133 70.7969 19.1133C71.2578 19.1133 71.6562 18.9805 71.9922 18.7148V20.8711Z" fill="#FAEBCC"/>
<path d="M77 2.875C77 1.28926 78.2706 0 79.8333 0H86.9167V5.75C86.9167 6.54512 87.5497 7.1875 88.3333 7.1875H94V20.125C94 21.7107 92.7294 23 91.1667 23H79.8333C78.2706 23 77 21.7107 77 20.125V2.875ZM94 5.75H88.3333V0L94 5.75Z" fill="#FAEBCC"/>
</svg>
