<svg width="69" height="25" viewBox="0 0 69 25" fill="none" xmlns="http://www.w3.org/2000/svg">
<path d="M38.625 15.5H37.4531L36.0469 13.1445C35.918 12.9258 35.793 12.7402 35.6719 12.5879C35.5508 12.4316 35.4258 12.3047 35.2969 12.207C35.1719 12.1094 35.0352 12.0391 34.8867 11.9961C34.7422 11.9492 34.5781 11.9258 34.3945 11.9258H33.5859V15.5H32.6016V7.09766H35.1094C35.4766 7.09766 35.8145 7.14453 36.123 7.23828C36.4355 7.32812 36.7051 7.4668 36.9316 7.6543C37.1621 7.8418 37.3418 8.07617 37.4707 8.35742C37.5996 8.63477 37.6641 8.96094 37.6641 9.33594C37.6641 9.62891 37.6191 9.89844 37.5293 10.1445C37.4434 10.3867 37.3184 10.6035 37.1543 10.7949C36.9941 10.9863 36.7988 11.1504 36.5684 11.2871C36.3418 11.4199 36.0859 11.5234 35.8008 11.5977V11.6211C35.9414 11.6836 36.0625 11.7559 36.1641 11.8379C36.2695 11.916 36.3691 12.0098 36.4629 12.1191C36.5566 12.2285 36.6484 12.3535 36.7383 12.4941C36.832 12.6309 36.9355 12.791 37.0488 12.9746L38.625 15.5ZM33.5859 7.98828V11.0352H34.9219C35.168 11.0352 35.3945 10.998 35.6016 10.9238C35.8125 10.8496 35.9941 10.7441 36.1465 10.6074C36.2988 10.4668 36.418 10.2969 36.5039 10.0977C36.5898 9.89453 36.6328 9.66797 36.6328 9.41797C36.6328 8.96875 36.4863 8.61914 36.1934 8.36914C35.9043 8.11523 35.4844 7.98828 34.9336 7.98828H33.5859Z" fill="#194264"/>
<path d="M44.127 12.7402H39.8906C39.9062 13.4082 40.0859 13.9238 40.4297 14.2871C40.7734 14.6504 41.2461 14.832 41.8477 14.832C42.5234 14.832 43.1445 14.6094 43.7109 14.1641V15.0664C43.1836 15.4492 42.4863 15.6406 41.6191 15.6406C40.7715 15.6406 40.1055 15.3691 39.6211 14.8262C39.1367 14.2793 38.8945 13.5117 38.8945 12.5234C38.8945 11.5898 39.1582 10.8301 39.6855 10.2441C40.2168 9.6543 40.875 9.35938 41.6602 9.35938C42.4453 9.35938 43.0527 9.61328 43.4824 10.1211C43.9121 10.6289 44.127 11.334 44.127 12.2363V12.7402ZM43.1426 11.9258C43.1387 11.3711 43.0039 10.9395 42.7383 10.6309C42.4766 10.3223 42.1113 10.168 41.6426 10.168C41.1895 10.168 40.8047 10.3301 40.4883 10.6543C40.1719 10.9785 39.9766 11.4023 39.9023 11.9258H43.1426Z" fill="#194264"/>
<path d="M45.2227 15.2832V14.252C45.7461 14.6387 46.3223 14.832 46.9512 14.832C47.7949 14.832 48.2168 14.5508 48.2168 13.9883C48.2168 13.8281 48.1797 13.6934 48.1055 13.584C48.0352 13.4707 47.9375 13.3711 47.8125 13.2852C47.6914 13.1992 47.5469 13.123 47.3789 13.0566C47.2148 12.9863 47.0371 12.9141 46.8457 12.8398C46.5801 12.7344 46.3457 12.6289 46.1426 12.5234C45.9434 12.4141 45.7754 12.293 45.6387 12.1602C45.5059 12.0234 45.4043 11.8691 45.334 11.6973C45.2676 11.5254 45.2344 11.3242 45.2344 11.0938C45.2344 10.8125 45.2988 10.5645 45.4277 10.3496C45.5566 10.1309 45.7285 9.94922 45.9434 9.80469C46.1582 9.65625 46.4023 9.54492 46.6758 9.4707C46.9531 9.39648 47.2383 9.35938 47.5312 9.35938C48.0508 9.35938 48.5156 9.44922 48.9258 9.62891V10.6016C48.4844 10.3125 47.9766 10.168 47.4023 10.168C47.2227 10.168 47.0605 10.1895 46.916 10.2324C46.7715 10.2715 46.6465 10.3281 46.541 10.4023C46.4395 10.4766 46.3594 10.5664 46.3008 10.6719C46.2461 10.7734 46.2188 10.8867 46.2188 11.0117C46.2188 11.168 46.2461 11.2988 46.3008 11.4043C46.3594 11.5098 46.4434 11.6035 46.5527 11.6855C46.6621 11.7676 46.7949 11.8418 46.9512 11.9082C47.1074 11.9746 47.2852 12.0469 47.4844 12.125C47.75 12.2266 47.9883 12.332 48.1992 12.4414C48.4102 12.5469 48.5898 12.668 48.7383 12.8047C48.8867 12.9375 49 13.0918 49.0781 13.2676C49.1602 13.4434 49.2012 13.6523 49.2012 13.8945C49.2012 14.1914 49.1348 14.4492 49.002 14.668C48.873 14.8867 48.6992 15.0684 48.4805 15.2129C48.2617 15.3574 48.0098 15.4648 47.7246 15.5352C47.4395 15.6055 47.1406 15.6406 46.8281 15.6406C46.2109 15.6406 45.6758 15.5215 45.2227 15.2832Z" fill="#194264"/>
<path d="M55.5352 15.5H54.5742V14.5508H54.5508C54.1523 15.2773 53.5352 15.6406 52.6992 15.6406C51.2695 15.6406 50.5547 14.7891 50.5547 13.0859V9.5H51.5098V12.9336C51.5098 14.1992 51.9941 14.832 52.9629 14.832C53.4316 14.832 53.8164 14.6602 54.1172 14.3164C54.4219 13.9688 54.5742 13.5156 54.5742 12.957V9.5H55.5352V15.5Z" fill="#194264"/>
<path d="M58.4414 15.5H57.4805V6.61719H58.4414V15.5Z" fill="#194264"/>
<path d="M63.1699 15.4414C62.9434 15.5664 62.6445 15.6289 62.2734 15.6289C61.2227 15.6289 60.6973 15.043 60.6973 13.8711V10.3203H59.666V9.5H60.6973V8.03516L61.6582 7.72461V9.5H63.1699V10.3203H61.6582V13.7012C61.6582 14.1035 61.7266 14.3906 61.8633 14.5625C62 14.7344 62.2266 14.8203 62.543 14.8203C62.7852 14.8203 62.9941 14.7539 63.1699 14.6211V15.4414Z" fill="#194264"/>
<path d="M64.0898 15.2832V14.252C64.6133 14.6387 65.1895 14.832 65.8184 14.832C66.6621 14.832 67.084 14.5508 67.084 13.9883C67.084 13.8281 67.0469 13.6934 66.9727 13.584C66.9023 13.4707 66.8047 13.3711 66.6797 13.2852C66.5586 13.1992 66.4141 13.123 66.2461 13.0566C66.082 12.9863 65.9043 12.9141 65.7129 12.8398C65.4473 12.7344 65.2129 12.6289 65.0098 12.5234C64.8105 12.4141 64.6426 12.293 64.5059 12.1602C64.373 12.0234 64.2715 11.8691 64.2012 11.6973C64.1348 11.5254 64.1016 11.3242 64.1016 11.0938C64.1016 10.8125 64.166 10.5645 64.2949 10.3496C64.4238 10.1309 64.5957 9.94922 64.8105 9.80469C65.0254 9.65625 65.2695 9.54492 65.543 9.4707C65.8203 9.39648 66.1055 9.35938 66.3984 9.35938C66.918 9.35938 67.3828 9.44922 67.793 9.62891V10.6016C67.3516 10.3125 66.8438 10.168 66.2695 10.168C66.0898 10.168 65.9277 10.1895 65.7832 10.2324C65.6387 10.2715 65.5137 10.3281 65.4082 10.4023C65.3066 10.4766 65.2266 10.5664 65.168 10.6719C65.1133 10.7734 65.0859 10.8867 65.0859 11.0117C65.0859 11.168 65.1133 11.2988 65.168 11.4043C65.2266 11.5098 65.3105 11.6035 65.4199 11.6855C65.5293 11.7676 65.6621 11.8418 65.8184 11.9082C65.9746 11.9746 66.1523 12.0469 66.3516 12.125C66.6172 12.2266 66.8555 12.332 67.0664 12.4414C67.2773 12.5469 67.457 12.668 67.6055 12.8047C67.7539 12.9375 67.8672 13.0918 67.9453 13.2676C68.0273 13.4434 68.0684 13.6523 68.0684 13.8945C68.0684 14.1914 68.002 14.4492 67.8691 14.668C67.7402 14.8867 67.5664 15.0684 67.3477 15.2129C67.1289 15.3574 66.877 15.4648 66.5918 15.5352C66.3066 15.6055 66.0078 15.6406 65.6953 15.6406C65.0781 15.6406 64.543 15.5215 64.0898 15.2832Z" fill="#194264"/>
<path d="M21.4375 15.3125H3.0625C1.37813 15.3125 0 13.9344 0 12.25C0 10.5656 1.37813 9.1875 3.0625 9.1875H21.4375C23.1219 9.1875 24.5 10.5656 24.5 12.25C24.5 13.9344 23.1219 15.3125 21.4375 15.3125ZM15.3125 6.125H3.0625C1.37813 6.125 0 4.74688 0 3.0625C0 1.37813 1.37813 0 3.0625 0H15.3125C16.9969 0 18.375 1.37813 18.375 3.0625C18.375 4.74688 16.9969 6.125 15.3125 6.125ZM9.1875 24.5H3.0625C1.37813 24.5 0 23.1219 0 21.4375C0 19.7531 1.37813 18.375 3.0625 18.375H9.1875C10.8719 18.375 12.25 19.7531 12.25 21.4375C12.25 23.1219 10.8719 24.5 9.1875 24.5Z" fill="#194264"/>
</svg>
