<svg width="400" height="147" viewBox="0 0 400 147" fill="none" xmlns="http://www.w3.org/2000/svg">
<g filter="url(#filter0_d_16_116)">
<path d="M11.9047 146.467H8.91778L6.45733 142.341C6.23528 141.961 6.01681 141.639 5.80193 141.374C5.5942 141.102 5.37932 140.879 5.15727 140.708C4.94238 140.536 4.70601 140.41 4.44814 140.332C4.19028 140.253 3.90019 140.213 3.57786 140.213H2.5464V146.467H0V131.059H5.07132C5.79477 131.059 6.46091 131.145 7.06976 131.317C7.6786 131.489 8.20865 131.75 8.65991 132.101C9.11118 132.445 9.46216 132.879 9.71286 133.401C9.97072 133.917 10.0997 134.522 10.0997 135.217C10.0997 135.762 10.0173 136.263 9.85253 136.721C9.69495 137.173 9.46574 137.577 9.1649 137.936C8.87122 138.287 8.51308 138.587 8.09047 138.838C7.67502 139.089 7.20585 139.282 6.68296 139.418V139.461C6.96231 139.619 7.20585 139.794 7.41358 139.988C7.6213 140.174 7.81828 140.367 8.00451 140.568C8.19075 140.768 8.3734 140.998 8.55247 141.256C8.73871 141.506 8.94285 141.8 9.1649 142.137L11.9047 146.467ZM2.5464 133.133V138.14H4.67378C5.06773 138.14 5.42946 138.079 5.75895 137.957C6.09561 137.835 6.3857 137.66 6.62924 137.431C6.87278 137.201 7.06259 136.922 7.19869 136.593C7.33478 136.263 7.40283 135.894 7.40283 135.486C7.40283 134.748 7.17004 134.171 6.70445 133.756C6.23886 133.341 5.56914 133.133 4.69526 133.133H2.5464Z" fill="#FAEBCC"/>
<path d="M21.8754 146.467H19.4579V144.747H19.415C18.6557 146.065 17.5419 146.724 16.0735 146.724C14.9919 146.724 14.1431 146.431 13.5271 145.843C12.9182 145.256 12.6138 144.479 12.6138 143.512C12.6138 141.435 13.81 140.224 16.2024 139.88L19.4687 139.418C19.4687 137.85 18.7238 137.065 17.2339 137.065C15.9231 137.065 14.7412 137.517 13.6883 138.419V136.238C14.8486 135.55 16.1881 135.206 17.7066 135.206C20.4858 135.206 21.8754 136.575 21.8754 139.311V146.467ZM19.4687 141.062L17.1587 141.384C16.4424 141.478 15.9016 141.653 15.5363 141.911C15.1781 142.162 14.9991 142.606 14.9991 143.243C14.9991 143.709 15.1638 144.092 15.4933 144.393C15.83 144.687 16.2776 144.833 16.8363 144.833C17.5956 144.833 18.2224 144.568 18.7166 144.038C19.218 143.501 19.4687 142.828 19.4687 142.018V141.062Z" fill="#FAEBCC"/>
<path d="M34.7256 146.467H32.2329V140.267C32.2329 138.211 31.5059 137.183 30.0518 137.183C29.2926 137.183 28.6658 137.47 28.1716 138.043C27.6773 138.609 27.4302 139.325 27.4302 140.192V146.467H24.9268V135.464H27.4302V137.291H27.4732C28.2969 135.901 29.486 135.206 31.0403 135.206C32.2365 135.206 33.1498 135.597 33.7801 136.378C34.4104 137.151 34.7256 138.272 34.7256 139.741V146.467Z" fill="#FAEBCC"/>
<path d="M37.0894 146.123V143.813C38.0205 144.522 39.0484 144.876 40.173 144.876C41.6772 144.876 42.4293 144.432 42.4293 143.544C42.4293 143.293 42.3648 143.082 42.2359 142.91C42.107 142.731 41.9315 142.574 41.7094 142.437C41.4945 142.301 41.2367 142.18 40.9358 142.072C40.6422 141.965 40.3127 141.843 39.9473 141.707C39.4961 141.528 39.0878 141.338 38.7225 141.137C38.3644 140.937 38.0635 140.711 37.82 140.46C37.5836 140.203 37.4045 139.913 37.2828 139.59C37.161 139.268 37.1001 138.892 37.1001 138.462C37.1001 137.932 37.2255 137.466 37.4762 137.065C37.7269 136.657 38.0635 136.317 38.4861 136.045C38.9087 135.765 39.3886 135.557 39.9259 135.421C40.4631 135.278 41.0182 135.206 41.5912 135.206C42.6084 135.206 43.518 135.361 44.3203 135.669V137.85C43.5467 137.32 42.6585 137.055 41.6557 137.055C41.3405 137.055 41.054 137.087 40.7962 137.151C40.5455 137.216 40.3306 137.305 40.1515 137.42C39.9724 137.534 39.8327 137.674 39.7325 137.839C39.6322 137.996 39.582 138.172 39.582 138.365C39.582 138.602 39.6322 138.802 39.7325 138.967C39.8327 139.132 39.9796 139.279 40.173 139.408C40.3735 139.529 40.6099 139.644 40.8821 139.751C41.1615 139.852 41.4802 139.963 41.8384 140.084C42.3111 140.278 42.7337 140.475 43.1062 140.675C43.4858 140.876 43.8081 141.105 44.0732 141.363C44.3382 141.614 44.5423 141.907 44.6856 142.244C44.8288 142.574 44.9005 142.967 44.9005 143.426C44.9005 143.985 44.7715 144.472 44.5137 144.887C44.2558 145.303 43.912 145.646 43.4822 145.919C43.0525 146.191 42.5546 146.391 41.9888 146.52C41.4301 146.656 40.8391 146.724 40.216 146.724C39.0126 146.724 37.9704 146.524 37.0894 146.123Z" fill="#FAEBCC"/>
<path d="M52.1529 146.724C50.4553 146.724 49.0979 146.212 48.0808 145.188C47.0708 144.157 46.5658 142.792 46.5658 141.094C46.5658 139.246 47.0923 137.803 48.1453 136.764C49.2054 135.726 50.6308 135.206 52.4215 135.206C54.1406 135.206 55.48 135.711 56.4399 136.721C57.3997 137.731 57.8796 139.132 57.8796 140.922C57.8796 142.677 57.3603 144.085 56.3217 145.145C55.2902 146.198 53.9006 146.724 52.1529 146.724ZM52.2711 137.194C51.2969 137.194 50.5269 137.534 49.9611 138.215C49.3952 138.895 49.1123 139.834 49.1123 141.03C49.1123 142.183 49.3988 143.093 49.9718 143.759C50.5448 144.418 51.3113 144.747 52.2711 144.747C53.2524 144.747 54.0045 144.422 54.5274 143.77C55.0574 143.118 55.3225 142.19 55.3225 140.987C55.3225 139.776 55.0574 138.842 54.5274 138.183C54.0045 137.524 53.2524 137.194 52.2711 137.194Z" fill="#FAEBCC"/>
<path d="M76.8755 146.467H74.3829V140.471C74.3829 139.318 74.2181 138.484 73.8886 137.968C73.5663 137.452 73.0183 137.194 72.2448 137.194C71.5929 137.194 71.0378 137.52 70.5794 138.172C70.1281 138.824 69.9025 139.605 69.9025 140.514V146.467H67.3991V140.267C67.3991 138.218 66.6756 137.194 65.2287 137.194C64.5554 137.194 64.0003 137.502 63.5634 138.118C63.1336 138.734 62.9187 139.533 62.9187 140.514V146.467H60.426V135.464H62.9187V137.205H62.9617C63.7567 135.873 64.9136 135.206 66.4321 135.206C67.1913 135.206 67.8539 135.418 68.4198 135.84C68.9928 136.256 69.3832 136.804 69.5909 137.484C70.4075 135.966 71.6252 135.206 73.244 135.206C75.665 135.206 76.8755 136.7 76.8755 139.687V146.467Z" fill="#FAEBCC"/>
<path d="M94.7111 135.464L91.4663 146.467H88.8555L86.857 139.01C86.7782 138.723 86.7281 138.401 86.7066 138.043H86.6636C86.6493 138.287 86.5848 138.602 86.4702 138.988L84.2999 146.467H81.7427L78.5087 135.464H81.0873L83.0858 143.394C83.1502 143.63 83.1932 143.945 83.2147 144.339H83.2899C83.3114 144.038 83.3687 143.716 83.4618 143.372L85.6859 135.464H88.0281L90.0051 143.426C90.0696 143.677 90.1161 143.992 90.1448 144.371H90.22C90.2343 144.106 90.288 143.791 90.3811 143.426L92.3366 135.464H94.7111Z" fill="#FAEBCC"/>
<path d="M105.015 146.467H102.597V144.747H102.554C101.795 146.065 100.681 146.724 99.213 146.724C98.1314 146.724 97.2826 146.431 96.6666 145.843C96.0577 145.256 95.7533 144.479 95.7533 143.512C95.7533 141.435 96.9495 140.224 99.3419 139.88L102.608 139.418C102.608 137.85 101.863 137.065 100.373 137.065C99.0626 137.065 97.8807 137.517 96.8277 138.419V136.238C97.9881 135.55 99.3276 135.206 100.846 135.206C103.625 135.206 105.015 136.575 105.015 139.311V146.467ZM102.608 141.062L100.298 141.384C99.5819 141.478 99.0411 141.653 98.6758 141.911C98.3176 142.162 98.1385 142.606 98.1385 143.243C98.1385 143.709 98.3033 144.092 98.6328 144.393C98.9694 144.687 99.4171 144.833 99.9758 144.833C100.735 144.833 101.362 144.568 101.856 144.038C102.357 143.501 102.608 142.828 102.608 142.018V141.062Z" fill="#FAEBCC"/>
<path d="M114.448 137.839C114.148 137.602 113.714 137.484 113.148 137.484C112.411 137.484 111.795 137.817 111.3 138.484C110.806 139.15 110.559 140.056 110.559 141.202V146.467H108.066V135.464H110.559V137.731H110.602C110.845 136.958 111.218 136.356 111.719 135.926C112.228 135.489 112.794 135.271 113.417 135.271C113.868 135.271 114.212 135.339 114.448 135.475V137.839Z" fill="#FAEBCC"/>
<path d="M125.332 141.642H117.833C117.862 142.659 118.173 143.444 118.768 143.995C119.369 144.547 120.193 144.823 121.239 144.823C122.414 144.823 123.492 144.472 124.473 143.77V145.779C123.47 146.409 122.145 146.724 120.497 146.724C118.879 146.724 117.607 146.227 116.683 145.231C115.766 144.228 115.308 142.821 115.308 141.008C115.308 139.297 115.813 137.903 116.823 136.829C117.84 135.747 119.101 135.206 120.605 135.206C122.109 135.206 123.273 135.69 124.097 136.657C124.921 137.624 125.332 138.967 125.332 140.686V141.642ZM122.926 139.88C122.919 138.985 122.707 138.29 122.292 137.796C121.876 137.294 121.303 137.044 120.573 137.044C119.856 137.044 119.248 137.305 118.746 137.828C118.252 138.351 117.947 139.035 117.833 139.88H122.926Z" fill="#FAEBCC"/>
<path d="M145.951 146.467H142.964L140.503 142.341C140.281 141.961 140.063 141.639 139.848 141.374C139.64 141.102 139.425 140.879 139.203 140.708C138.988 140.536 138.752 140.41 138.494 140.332C138.236 140.253 137.946 140.213 137.624 140.213H136.592V146.467H134.046V131.059H139.117C139.841 131.059 140.507 131.145 141.116 131.317C141.725 131.489 142.255 131.75 142.706 132.101C143.157 132.445 143.508 132.879 143.759 133.401C144.017 133.917 144.146 134.522 144.146 135.217C144.146 135.762 144.063 136.263 143.899 136.721C143.741 137.173 143.512 137.577 143.211 137.936C142.917 138.287 142.559 138.587 142.137 138.838C141.721 139.089 141.252 139.282 140.729 139.418V139.461C141.008 139.619 141.252 139.794 141.46 139.988C141.667 140.174 141.864 140.367 142.051 140.568C142.237 140.768 142.419 140.998 142.599 141.256C142.785 141.506 142.989 141.8 143.211 142.137L145.951 146.467ZM136.592 133.133V138.14H138.72C139.114 138.14 139.475 138.079 139.805 137.957C140.142 137.835 140.432 137.66 140.675 137.431C140.919 137.201 141.109 136.922 141.245 136.593C141.381 136.263 141.449 135.894 141.449 135.486C141.449 134.748 141.216 134.171 140.75 133.756C140.285 133.341 139.615 133.133 138.741 133.133H136.592Z" fill="#FAEBCC"/>
<path d="M156.212 141.642H148.712C148.741 142.659 149.052 143.444 149.647 143.995C150.248 144.547 151.072 144.823 152.118 144.823C153.293 144.823 154.371 144.472 155.352 143.77V145.779C154.349 146.409 153.024 146.724 151.377 146.724C149.758 146.724 148.486 146.227 147.562 145.231C146.646 144.228 146.187 142.821 146.187 141.008C146.187 139.297 146.692 137.903 147.702 136.829C148.719 135.747 149.98 135.206 151.484 135.206C152.988 135.206 154.152 135.69 154.976 136.657C155.8 137.624 156.212 138.967 156.212 140.686V141.642ZM153.805 139.88C153.798 138.985 153.586 138.29 153.171 137.796C152.755 137.294 152.182 137.044 151.452 137.044C150.736 137.044 150.127 137.305 149.625 137.828C149.131 138.351 148.827 139.035 148.712 139.88H153.805Z" fill="#FAEBCC"/>
<path d="M167.031 146.467H164.614V144.747H164.571C163.811 146.065 162.698 146.724 161.229 146.724C160.148 146.724 159.299 146.431 158.683 145.843C158.074 145.256 157.769 144.479 157.769 143.512C157.769 141.435 158.966 140.224 161.358 139.88L164.624 139.418C164.624 137.85 163.879 137.065 162.39 137.065C161.079 137.065 159.897 137.517 158.844 138.419V136.238C160.004 135.55 161.344 135.206 162.862 135.206C165.641 135.206 167.031 136.575 167.031 139.311V146.467ZM164.624 141.062L162.314 141.384C161.598 141.478 161.057 141.653 160.692 141.911C160.334 142.162 160.155 142.606 160.155 143.243C160.155 143.709 160.319 144.092 160.649 144.393C160.986 144.687 161.433 144.833 161.992 144.833C162.751 144.833 163.378 144.568 163.872 144.038C164.374 143.501 164.624 142.828 164.624 142.018V141.062Z" fill="#FAEBCC"/>
<path d="M180.085 146.467H177.593V144.597H177.55C176.748 146.015 175.512 146.724 173.843 146.724C172.489 146.724 171.404 146.234 170.587 145.252C169.778 144.264 169.373 142.921 169.373 141.223C169.373 139.404 169.821 137.946 170.716 136.85C171.619 135.754 172.819 135.206 174.316 135.206C175.798 135.206 176.876 135.801 177.55 136.99H177.593V130.178H180.085V146.467ZM177.625 141.438V139.998C177.625 139.218 177.371 138.555 176.862 138.011C176.354 137.466 175.705 137.194 174.917 137.194C173.986 137.194 173.252 137.542 172.715 138.236C172.185 138.931 171.92 139.895 171.92 141.127C171.92 142.244 172.174 143.129 172.683 143.78C173.198 144.425 173.89 144.747 174.756 144.747C175.609 144.747 176.3 144.436 176.83 143.813C177.36 143.182 177.625 142.391 177.625 141.438Z" fill="#FAEBCC"/>
<path d="M184.598 133.154C184.19 133.154 183.839 133.022 183.545 132.757C183.259 132.492 183.115 132.155 183.115 131.747C183.115 131.339 183.259 130.998 183.545 130.726C183.839 130.454 184.19 130.318 184.598 130.318C185.021 130.318 185.379 130.454 185.672 130.726C185.966 130.998 186.113 131.339 186.113 131.747C186.113 132.134 185.966 132.467 185.672 132.746C185.379 133.018 185.021 133.154 184.598 133.154ZM185.834 146.467H183.341V135.464H185.834V146.467Z" fill="#FAEBCC"/>
<path d="M198.899 146.467H196.406V140.267C196.406 138.211 195.679 137.183 194.225 137.183C193.466 137.183 192.839 137.47 192.345 138.043C191.85 138.609 191.603 139.325 191.603 140.192V146.467H189.1V135.464H191.603V137.291H191.646C192.47 135.901 193.659 135.206 195.213 135.206C196.41 135.206 197.323 135.597 197.953 136.378C198.584 137.151 198.899 138.272 198.899 139.741V146.467Z" fill="#FAEBCC"/>
<path d="M211.265 141.642H203.766C203.795 142.659 204.106 143.444 204.701 143.995C205.302 144.547 206.126 144.823 207.172 144.823C208.347 144.823 209.425 144.472 210.406 143.77V145.779C209.403 146.409 208.078 146.724 206.43 146.724C204.812 146.724 203.54 146.227 202.616 145.231C201.699 144.228 201.241 142.821 201.241 141.008C201.241 139.297 201.746 137.903 202.756 136.829C203.773 135.747 205.034 135.206 206.538 135.206C208.042 135.206 209.206 135.69 210.03 136.657C210.854 137.624 211.265 138.967 211.265 140.686V141.642ZM208.859 139.88C208.852 138.985 208.64 138.29 208.225 137.796C207.809 137.294 207.236 137.044 206.506 137.044C205.789 137.044 205.181 137.305 204.679 137.828C204.185 138.351 203.88 139.035 203.766 139.88H208.859Z" fill="#FAEBCC"/>
<path d="M212.952 146.123V143.813C213.883 144.522 214.911 144.876 216.036 144.876C217.54 144.876 218.292 144.432 218.292 143.544C218.292 143.293 218.228 143.082 218.099 142.91C217.97 142.731 217.794 142.574 217.572 142.437C217.357 142.301 217.1 142.18 216.799 142.072C216.505 141.965 216.176 141.843 215.81 141.707C215.359 141.528 214.951 141.338 214.585 141.137C214.227 140.937 213.926 140.711 213.683 140.46C213.447 140.203 213.267 139.913 213.146 139.59C213.024 139.268 212.963 138.892 212.963 138.462C212.963 137.932 213.088 137.466 213.339 137.065C213.59 136.657 213.926 136.317 214.349 136.045C214.772 135.765 215.252 135.557 215.789 135.421C216.326 135.278 216.881 135.206 217.454 135.206C218.471 135.206 219.381 135.361 220.183 135.669V137.85C219.41 137.32 218.521 137.055 217.519 137.055C217.203 137.055 216.917 137.087 216.659 137.151C216.408 137.216 216.193 137.305 216.014 137.42C215.835 137.534 215.696 137.674 215.595 137.839C215.495 137.996 215.445 138.172 215.445 138.365C215.445 138.602 215.495 138.802 215.595 138.967C215.696 139.132 215.842 139.279 216.036 139.408C216.236 139.529 216.473 139.644 216.745 139.751C217.024 139.852 217.343 139.963 217.701 140.084C218.174 140.278 218.597 140.475 218.969 140.675C219.349 140.876 219.671 141.105 219.936 141.363C220.201 141.614 220.405 141.907 220.548 142.244C220.692 142.574 220.763 142.967 220.763 143.426C220.763 143.985 220.634 144.472 220.377 144.887C220.119 145.303 219.775 145.646 219.345 145.919C218.915 146.191 218.418 146.391 217.852 146.52C217.293 146.656 216.702 146.724 216.079 146.724C214.875 146.724 213.833 146.524 212.952 146.123Z" fill="#FAEBCC"/>
<path d="M222.45 146.123V143.813C223.381 144.522 224.409 144.876 225.534 144.876C227.038 144.876 227.79 144.432 227.79 143.544C227.79 143.293 227.726 143.082 227.597 142.91C227.468 142.731 227.292 142.574 227.07 142.437C226.855 142.301 226.598 142.18 226.297 142.072C226.003 141.965 225.674 141.843 225.308 141.707C224.857 141.528 224.449 141.338 224.083 141.137C223.725 140.937 223.424 140.711 223.181 140.46C222.944 140.203 222.765 139.913 222.644 139.59C222.522 139.268 222.461 138.892 222.461 138.462C222.461 137.932 222.586 137.466 222.837 137.065C223.088 136.657 223.424 136.317 223.847 136.045C224.27 135.765 224.75 135.557 225.287 135.421C225.824 135.278 226.379 135.206 226.952 135.206C227.969 135.206 228.879 135.361 229.681 135.669V137.85C228.908 137.32 228.019 137.055 227.017 137.055C226.701 137.055 226.415 137.087 226.157 137.151C225.906 137.216 225.691 137.305 225.512 137.42C225.333 137.534 225.194 137.674 225.093 137.839C224.993 137.996 224.943 138.172 224.943 138.365C224.943 138.602 224.993 138.802 225.093 138.967C225.194 139.132 225.34 139.279 225.534 139.408C225.734 139.529 225.971 139.644 226.243 139.751C226.522 139.852 226.841 139.963 227.199 140.084C227.672 140.278 228.095 140.475 228.467 140.675C228.847 140.876 229.169 141.105 229.434 141.363C229.699 141.614 229.903 141.907 230.046 142.244C230.19 142.574 230.261 142.967 230.261 143.426C230.261 143.985 230.132 144.472 229.875 144.887C229.617 145.303 229.273 145.646 228.843 145.919C228.413 146.191 227.916 146.391 227.35 146.52C226.791 146.656 226.2 146.724 225.577 146.724C224.373 146.724 223.331 146.524 222.45 146.123Z" fill="#FAEBCC"/>
<path d="M251.632 146.467H248.828L247.441 142.545H241.382L240.049 146.467H237.256L243.026 131.059H245.905L251.632 146.467ZM246.765 140.46L244.626 134.315C244.562 134.114 244.494 133.792 244.422 133.348H244.379C244.315 133.756 244.243 134.078 244.164 134.315L242.048 140.46H246.765Z" fill="#FAEBCC"/>
<path d="M252.792 146.123V143.813C253.723 144.522 254.751 144.876 255.876 144.876C257.38 144.876 258.132 144.432 258.132 143.544C258.132 143.293 258.068 143.082 257.939 142.91C257.81 142.731 257.634 142.574 257.412 142.437C257.197 142.301 256.939 142.18 256.639 142.072C256.345 141.965 256.015 141.843 255.65 141.707C255.199 141.528 254.791 141.338 254.425 141.137C254.067 140.937 253.766 140.711 253.523 140.46C253.286 140.203 253.107 139.913 252.986 139.59C252.864 139.268 252.803 138.892 252.803 138.462C252.803 137.932 252.928 137.466 253.179 137.065C253.43 136.657 253.766 136.317 254.189 136.045C254.612 135.765 255.091 135.557 255.629 135.421C256.166 135.278 256.721 135.206 257.294 135.206C258.311 135.206 259.221 135.361 260.023 135.669V137.85C259.25 137.32 258.361 137.055 257.358 137.055C257.043 137.055 256.757 137.087 256.499 137.151C256.248 137.216 256.033 137.305 255.854 137.42C255.675 137.534 255.536 137.674 255.435 137.839C255.335 137.996 255.285 138.172 255.285 138.365C255.285 138.602 255.335 138.802 255.435 138.967C255.536 139.132 255.682 139.279 255.876 139.408C256.076 139.529 256.313 139.644 256.585 139.751C256.864 139.852 257.183 139.963 257.541 140.084C258.014 140.278 258.437 140.475 258.809 140.675C259.189 140.876 259.511 141.105 259.776 141.363C260.041 141.614 260.245 141.907 260.388 142.244C260.532 142.574 260.603 142.967 260.603 143.426C260.603 143.985 260.474 144.472 260.216 144.887C259.959 145.303 259.615 145.646 259.185 145.919C258.755 146.191 258.257 146.391 257.692 146.52C257.133 146.656 256.542 146.724 255.919 146.724C254.715 146.724 253.673 146.524 252.792 146.123Z" fill="#FAEBCC"/>
<path d="M262.29 146.123V143.813C263.221 144.522 264.249 144.876 265.374 144.876C266.878 144.876 267.63 144.432 267.63 143.544C267.63 143.293 267.566 143.082 267.437 142.91C267.308 142.731 267.132 142.574 266.91 142.437C266.695 142.301 266.437 142.18 266.137 142.072C265.843 141.965 265.513 141.843 265.148 141.707C264.697 141.528 264.289 141.338 263.923 141.137C263.565 140.937 263.264 140.711 263.021 140.46C262.784 140.203 262.605 139.913 262.484 139.59C262.362 139.268 262.301 138.892 262.301 138.462C262.301 137.932 262.426 137.466 262.677 137.065C262.928 136.657 263.264 136.317 263.687 136.045C264.109 135.765 264.589 135.557 265.127 135.421C265.664 135.278 266.219 135.206 266.792 135.206C267.809 135.206 268.719 135.361 269.521 135.669V137.85C268.747 137.32 267.859 137.055 266.856 137.055C266.541 137.055 266.255 137.087 265.997 137.151C265.746 137.216 265.531 137.305 265.352 137.42C265.173 137.534 265.034 137.674 264.933 137.839C264.833 137.996 264.783 138.172 264.783 138.365C264.783 138.602 264.833 138.802 264.933 138.967C265.034 139.132 265.18 139.279 265.374 139.408C265.574 139.529 265.811 139.644 266.083 139.751C266.362 139.852 266.681 139.963 267.039 140.084C267.512 140.278 267.934 140.475 268.307 140.675C268.687 140.876 269.009 141.105 269.274 141.363C269.539 141.614 269.743 141.907 269.886 142.244C270.03 142.574 270.101 142.967 270.101 143.426C270.101 143.985 269.972 144.472 269.714 144.887C269.457 145.303 269.113 145.646 268.683 145.919C268.253 146.191 267.755 146.391 267.19 146.52C266.631 146.656 266.04 146.724 265.417 146.724C264.213 146.724 263.171 146.524 262.29 146.123Z" fill="#FAEBCC"/>
<path d="M281.791 141.642H274.292C274.32 142.659 274.632 143.444 275.226 143.995C275.828 144.547 276.652 144.823 277.697 144.823C278.872 144.823 279.95 144.472 280.932 143.77V145.779C279.929 146.409 278.604 146.724 276.956 146.724C275.337 146.724 274.066 146.227 273.142 145.231C272.225 144.228 271.767 142.821 271.767 141.008C271.767 139.297 272.272 137.903 273.282 136.829C274.299 135.747 275.559 135.206 277.064 135.206C278.568 135.206 279.732 135.69 280.555 136.657C281.379 137.624 281.791 138.967 281.791 140.686V141.642ZM279.384 139.88C279.377 138.985 279.166 138.29 278.75 137.796C278.335 137.294 277.762 137.044 277.031 137.044C276.315 137.044 275.706 137.305 275.205 137.828C274.711 138.351 274.406 139.035 274.292 139.88H279.384Z" fill="#FAEBCC"/>
<path d="M283.478 146.123V143.813C284.409 144.522 285.437 144.876 286.562 144.876C288.066 144.876 288.818 144.432 288.818 143.544C288.818 143.293 288.753 143.082 288.624 142.91C288.496 142.731 288.32 142.574 288.098 142.437C287.883 142.301 287.625 142.18 287.324 142.072C287.031 141.965 286.701 141.843 286.336 141.707C285.885 141.528 285.476 141.338 285.111 141.137C284.753 140.937 284.452 140.711 284.209 140.46C283.972 140.203 283.793 139.913 283.671 139.59C283.55 139.268 283.489 138.892 283.489 138.462C283.489 137.932 283.614 137.466 283.865 137.065C284.115 136.657 284.452 136.317 284.875 136.045C285.297 135.765 285.777 135.557 286.314 135.421C286.852 135.278 287.407 135.206 287.98 135.206C288.997 135.206 289.907 135.361 290.709 135.669V137.85C289.935 137.32 289.047 137.055 288.044 137.055C287.729 137.055 287.443 137.087 287.185 137.151C286.934 137.216 286.719 137.305 286.54 137.42C286.361 137.534 286.221 137.674 286.121 137.839C286.021 137.996 285.971 138.172 285.971 138.365C285.971 138.602 286.021 138.802 286.121 138.967C286.221 139.132 286.368 139.279 286.562 139.408C286.762 139.529 286.998 139.644 287.271 139.751C287.55 139.852 287.869 139.963 288.227 140.084C288.7 140.278 289.122 140.475 289.495 140.675C289.874 140.876 290.197 141.105 290.462 141.363C290.727 141.614 290.931 141.907 291.074 142.244C291.217 142.574 291.289 142.967 291.289 143.426C291.289 143.985 291.16 144.472 290.902 144.887C290.644 145.303 290.301 145.646 289.871 145.919C289.441 146.191 288.943 146.391 288.377 146.52C287.819 146.656 287.228 146.724 286.605 146.724C285.401 146.724 284.359 146.524 283.478 146.123Z" fill="#FAEBCC"/>
<path d="M292.976 146.123V143.813C293.907 144.522 294.935 144.876 296.06 144.876C297.564 144.876 298.316 144.432 298.316 143.544C298.316 143.293 298.251 143.082 298.122 142.91C297.993 142.731 297.818 142.574 297.596 142.437C297.381 142.301 297.123 142.18 296.822 142.072C296.529 141.965 296.199 141.843 295.834 141.707C295.383 141.528 294.974 141.338 294.609 141.137C294.251 140.937 293.95 140.711 293.707 140.46C293.47 140.203 293.291 139.913 293.169 139.59C293.048 139.268 292.987 138.892 292.987 138.462C292.987 137.932 293.112 137.466 293.363 137.065C293.613 136.657 293.95 136.317 294.373 136.045C294.795 135.765 295.275 135.557 295.812 135.421C296.35 135.278 296.905 135.206 297.478 135.206C298.495 135.206 299.405 135.361 300.207 135.669V137.85C299.433 137.32 298.545 137.055 297.542 137.055C297.227 137.055 296.941 137.087 296.683 137.151C296.432 137.216 296.217 137.305 296.038 137.42C295.859 137.534 295.719 137.674 295.619 137.839C295.519 137.996 295.469 138.172 295.469 138.365C295.469 138.602 295.519 138.802 295.619 138.967C295.719 139.132 295.866 139.279 296.06 139.408C296.26 139.529 296.496 139.644 296.769 139.751C297.048 139.852 297.367 139.963 297.725 140.084C298.198 140.278 298.62 140.475 298.993 140.675C299.372 140.876 299.695 141.105 299.96 141.363C300.225 141.614 300.429 141.907 300.572 142.244C300.715 142.574 300.787 142.967 300.787 143.426C300.787 143.985 300.658 144.472 300.4 144.887C300.142 145.303 299.799 145.646 299.369 145.919C298.939 146.191 298.441 146.391 297.875 146.52C297.317 146.656 296.726 146.724 296.102 146.724C294.899 146.724 293.857 146.524 292.976 146.123Z" fill="#FAEBCC"/>
<path d="M319.611 146.467H317.118V140.471C317.118 139.318 316.954 138.484 316.624 137.968C316.302 137.452 315.754 137.194 314.98 137.194C314.328 137.194 313.773 137.52 313.315 138.172C312.864 138.824 312.638 139.605 312.638 140.514V146.467H310.135V140.267C310.135 138.218 309.411 137.194 307.964 137.194C307.291 137.194 306.736 137.502 306.299 138.118C305.869 138.734 305.654 139.533 305.654 140.514V146.467H303.161V135.464H305.654V137.205H305.697C306.492 135.873 307.649 135.206 309.168 135.206C309.927 135.206 310.589 135.418 311.155 135.84C311.728 136.256 312.119 136.804 312.326 137.484C313.143 135.966 314.361 135.206 315.979 135.206C318.401 135.206 319.611 136.7 319.611 139.687V146.467Z" fill="#FAEBCC"/>
<path d="M331.967 141.642H324.467C324.496 142.659 324.808 143.444 325.402 143.995C326.004 144.547 326.828 144.823 327.873 144.823C329.048 144.823 330.126 144.472 331.107 143.77V145.779C330.105 146.409 328.78 146.724 327.132 146.724C325.513 146.724 324.242 146.227 323.318 145.231C322.401 144.228 321.943 142.821 321.943 141.008C321.943 139.297 322.448 137.903 323.458 136.829C324.475 135.747 325.735 135.206 327.24 135.206C328.744 135.206 329.908 135.69 330.731 136.657C331.555 137.624 331.967 138.967 331.967 140.686V141.642ZM329.56 139.88C329.553 138.985 329.342 138.29 328.926 137.796C328.511 137.294 327.938 137.044 327.207 137.044C326.491 137.044 325.882 137.305 325.381 137.828C324.887 138.351 324.582 139.035 324.467 139.88H329.56Z" fill="#FAEBCC"/>
<path d="M344.14 146.467H341.648V140.267C341.648 138.211 340.921 137.183 339.467 137.183C338.707 137.183 338.081 137.47 337.586 138.043C337.092 138.609 336.845 139.325 336.845 140.192V146.467H334.341V135.464H336.845V137.291H336.888C337.712 135.901 338.901 135.206 340.455 135.206C341.651 135.206 342.564 135.597 343.195 136.378C343.825 137.151 344.14 138.272 344.14 139.741V146.467Z" fill="#FAEBCC"/>
<path d="M352.994 146.348C352.507 146.592 351.865 146.714 351.07 146.714C348.936 146.714 347.869 145.689 347.869 143.641V137.42H346.031V135.464H347.869V132.918L350.361 132.209V135.464H352.994V137.42H350.361V142.921C350.361 143.573 350.479 144.038 350.716 144.318C350.952 144.597 351.346 144.737 351.898 144.737C352.32 144.737 352.686 144.615 352.994 144.371V146.348Z" fill="#FAEBCC"/>
<path d="M371.366 133.23H366.94V146.467H364.383V133.23H359.967V131.059H371.366V133.23Z" fill="#FAEBCC"/>
<path d="M376.072 146.724C374.375 146.724 373.017 146.212 372 145.188C370.99 144.157 370.485 142.792 370.485 141.094C370.485 139.246 371.012 137.803 372.065 136.764C373.125 135.726 374.55 135.206 376.341 135.206C378.06 135.206 379.4 135.711 380.359 136.721C381.319 137.731 381.799 139.132 381.799 140.922C381.799 142.677 381.28 144.085 380.241 145.145C379.21 146.198 377.82 146.724 376.072 146.724ZM376.191 137.194C375.216 137.194 374.446 137.534 373.881 138.215C373.315 138.895 373.032 139.834 373.032 141.03C373.032 142.183 373.318 143.093 373.891 143.759C374.464 144.418 375.231 144.747 376.191 144.747C377.172 144.747 377.924 144.422 378.447 143.77C378.977 143.118 379.242 142.19 379.242 140.987C379.242 139.776 378.977 138.842 378.447 138.183C377.924 137.524 377.172 137.194 376.191 137.194Z" fill="#FAEBCC"/>
<path d="M389.223 146.724C387.526 146.724 386.168 146.212 385.151 145.188C384.141 144.157 383.636 142.792 383.636 141.094C383.636 139.246 384.163 137.803 385.216 136.764C386.276 135.726 387.701 135.206 389.492 135.206C391.211 135.206 392.551 135.711 393.51 136.721C394.47 137.731 394.95 139.132 394.95 140.922C394.95 142.677 394.431 144.085 393.392 145.145C392.361 146.198 390.971 146.724 389.223 146.724ZM389.342 137.194C388.367 137.194 387.597 137.534 387.032 138.215C386.466 138.895 386.183 139.834 386.183 141.03C386.183 142.183 386.469 143.093 387.042 143.759C387.615 144.418 388.382 144.747 389.342 144.747C390.323 144.747 391.075 144.422 391.598 143.77C392.128 143.118 392.393 142.19 392.393 140.987C392.393 139.776 392.128 138.842 391.598 138.183C391.075 137.524 390.323 137.194 389.342 137.194Z" fill="#FAEBCC"/>
<path d="M400 146.467H397.497V130.178H400V146.467Z" fill="#FAEBCC"/>
<path d="M101.952 14.4404C101.952 13.9819 102.089 13.6152 102.365 13.3401C102.731 12.9734 103.144 12.79 103.602 12.79H176.217C176.675 12.79 177.042 12.9734 177.317 13.3401C177.684 13.6152 177.867 13.9819 177.867 14.4404V34.6569C177.867 35.9405 177.454 37.0865 176.629 38.095L154.9 66.5632L185.981 107.134C186.256 107.592 186.256 108.051 185.981 108.509C185.798 108.876 185.477 109.059 185.018 109.059H167.552C165.719 109.059 164.206 108.326 163.014 106.859L132.896 67.6634C132.254 66.9299 132.254 66.2423 132.896 65.6005L159.988 30.256H119.555V107.409C119.555 108.509 118.959 109.059 117.768 109.059H103.602C103.144 109.059 102.731 108.922 102.365 108.647C102.089 108.28 101.952 107.867 101.952 107.409V14.4404Z" fill="#FAEBCC"/>
<path d="M188.506 107.409L259.195 15.2655C260.387 13.7986 261.9 13.0651 263.733 13.0651H276.798C277.899 13.0651 278.449 13.6152 278.449 14.7154V107.684C278.449 108.784 277.899 109.334 276.798 109.334H263.733C261.9 109.334 260.387 108.601 259.195 107.134L235.403 76.0526L211.473 107.134C210.281 108.601 208.768 109.334 206.935 109.334H189.469C189.01 109.334 188.644 109.151 188.368 108.784C188.093 108.326 188.139 107.867 188.506 107.409ZM246.818 61.1996L260.983 79.6283V42.771L246.818 61.1996Z" fill="#FAEBCC"/>
<path d="M293.491 14.4404C293.491 13.9819 293.628 13.6152 293.903 13.3401C294.27 12.9734 294.683 12.79 295.141 12.79H354.828C356.662 12.79 358.174 13.5235 359.366 14.9905L369.543 28.3306C369.91 28.789 369.956 29.2475 369.681 29.7059C369.498 30.0726 369.131 30.256 368.581 30.256H337.912V107.409C337.912 108.509 337.362 109.059 336.262 109.059H322.096C320.996 109.059 320.446 108.509 320.446 107.409V30.256H295.141C294.683 30.256 294.27 30.1185 293.903 29.8434C293.628 29.4767 293.491 29.0641 293.491 28.6057V14.4404Z" fill="#FAEBCC"/>
<path d="M119.365 14.4404C119.365 13.9819 119.228 13.6152 118.953 13.3401C118.586 12.9734 118.174 12.79 117.715 12.79H45.1008C44.6423 12.79 44.2756 12.9734 44.0005 13.3401C43.6338 13.6152 43.4504 13.9819 43.4504 14.4404V34.6569C43.4504 35.9404 43.863 37.0865 44.6882 38.095L66.4175 66.5632L35.3363 107.134C35.0613 107.592 35.0613 108.051 35.3363 108.509C35.5197 108.876 35.8406 109.059 36.299 109.059H53.765C55.5987 109.059 57.1115 108.326 58.3034 106.859L88.4218 67.6634C89.0636 66.9299 89.0636 66.2423 88.4218 65.6005L61.329 30.256H101.762V107.409C101.762 108.509 102.358 109.059 103.55 109.059H117.715C118.174 109.059 118.586 108.922 118.953 108.646C119.228 108.28 119.365 107.867 119.365 107.409V14.4404Z" fill="#FAEBCC"/>
<path d="M392.967 11.0022C392.967 16.2501 388.712 20.5044 383.464 20.5044C378.217 20.5044 373.962 16.2501 373.962 11.0022C373.962 5.75427 378.217 1.5 383.464 1.5C388.712 1.5 392.967 5.75427 392.967 11.0022Z" stroke="#FAEBCC" stroke-width="3"/>
<path d="M387.304 12.2658L387.661 15.3877H386.369L386.08 12.7747C386.016 12.1971 385.846 11.7845 385.571 11.537C385.305 11.2894 384.888 11.1656 384.319 11.1656H381.294V15.3877H380.015V5.59578H384.553C385.479 5.59578 386.208 5.82958 386.74 6.29717C387.281 6.75559 387.551 7.38363 387.551 8.18129C387.551 8.80475 387.391 9.33193 387.07 9.76285C386.758 10.1938 386.337 10.4826 385.805 10.6293C386.712 10.8126 387.212 11.3582 387.304 12.2658ZM381.294 10.0517H384.113C384.782 10.0517 385.305 9.90038 385.681 9.59782C386.057 9.28609 386.245 8.85517 386.245 8.30506C386.245 7.79163 386.08 7.39739 385.75 7.12233C385.42 6.84728 384.947 6.70975 384.333 6.70975H381.294V10.0517Z" fill="#FAEBCC"/>
</g>
<defs>
<filter id="filter0_d_16_116" x="-4" y="0" width="408" height="154.724" filterUnits="userSpaceOnUse" color-interpolation-filters="sRGB">
<feFlood flood-opacity="0" result="BackgroundImageFix"/>
<feColorMatrix in="SourceAlpha" type="matrix" values="0 0 0 0 0 0 0 0 0 0 0 0 0 0 0 0 0 0 127 0" result="hardAlpha"/>
<feOffset dy="4"/>
<feGaussianBlur stdDeviation="2"/>
<feComposite in2="hardAlpha" operator="out"/>
<feColorMatrix type="matrix" values="0 0 0 0 0 0 0 0 0 0 0 0 0 0 0 0 0 0 0.25 0"/>
<feBlend mode="normal" in2="BackgroundImageFix" result="effect1_dropShadow_16_116"/>
<feBlend mode="normal" in="SourceGraphic" in2="effect1_dropShadow_16_116" result="shape"/>
</filter>
</defs>
</svg>
